<svg xmlns="http://www.w3.org/2000/svg" viewBox="0 0 500 500" width="500" height="500">
     <text x="50" y="25" font-size="15">Life Expectancy in The United States, Canada, and Mexico</text>
     <text x="250" y="490" font-size="15">Year</text>
     <text x="-50" y="260" font-size="15" transform="rotate(-90, 10, 250)">Life Expectancy (years)</text>
  <line x1="50" y1="450" x2="470" y2="450" stroke="black" stroke-width="2"/> 
  <line x1="50" y1="450" x2="50" y2="50" stroke="black" stroke-width="2"/>   
  {% for y in range(50, 451, 50) %}
    <text x="30" y="{{y+5}}" font-size="12">{{ (90 - ((y-50)/400)*40) | int }}</text>
    <line x1="45" y1="{{y}}" x2="50" y2="{{y}}" stroke="black"/>
  {% endfor %}
  {% for i in range(0, caData|length, 10) %}
    <text x="{{ 40 + (i * (420/(caData|length-1))) }}" y="470" font-size="12">{{ 1960 + i }}</text>
    <line x1="{{ 50 + (i * (420/(caData|length-1))) }}" y1="450" x2="{{ 50 + (i * (420/(caData|length-1))) }}" y2="455" stroke="black"/>
  {% endfor %}
     <line x1="50" y1="{{average}}" x2="470" y2="{{average}}" stroke="black" stroke-width="2" stroke-dasharray="5,5"/>
<polyline id = 'caLine'fill="none" stroke="blue" stroke-width="2" points="{% for i in range(caData|length) %}{{ 50 + (i * (420/(caData|length-1))) }},{{ 450 - ((caData[i]-50) * (400/40)) }} {% endfor %}"/>
<polyline id = "mxLine"fill="none" stroke="green" stroke-width="2" points="{% for i in range(mxData|length) %}{{ 50 + (i * (420/(mxData|length-1))) }},{{ 450 - ((mxData[i]-50) * (400/40)) }} {% endfor %}"/>
<polyline id = "usLine"fill="none" stroke="red" stroke-width="2" points="{% for i in range(usData|length) %}{{ 50 + (i * (420/(usData|length-1))) }},{{ 450 - ((usData[i]-50) * (400/40)) }} {% endfor %}"/>

  <rect x="350" y="30" width="130" height="90" fill="white" stroke="black"/>
  <line x1="360" y1="40" x2="380" y2="40" stroke="blue" stroke-width="2"/>
  <text x="390" y="45" font-size="14">Canada</text>
  <line x1="360" y1="60" x2="380" y2="60" stroke="green" stroke-width="2"/>
  <text x="390" y="65" font-size="14">Mexico</text>
  <line x1="360" y1="80" x2="380" y2="80" stroke="red" stroke-width="2"/>
  <text x="390" y="85" font-size="14">United States</text>
  <line x1="360" y1="100" x2="380" y2="100" stroke="black" stroke-width="2" stroke-dasharray="4,4"/>
<text x="390" y="105" font-size="14">Average</text>
</svg>